<svg width="139" height="25" viewBox="0 0 139 25" fill="none" xmlns="http://www.w3.org/2000/svg">
<g clip-path="url(#clip0_58247_592)">
<path d="M21.5169 22.6493L21.1587 20.9776C20.4207 17.5332 19.0683 14.2964 17.1387 11.3529V8.64058C18.0275 7.97178 18.6035 6.9084 18.6035 5.71289V4.24805C18.6035 3.84355 18.2756 3.51562 17.8711 3.51562H17.1387V0.732422C17.1387 0.32793 16.8107 0 16.4062 0C16.0018 0 15.6738 0.32793 15.6738 0.732422V3.52339C14.3584 3.6001 13.2059 4.29209 12.5 5.31528C11.7941 4.29209 10.6416 3.6001 9.32617 3.52339V0.732422C9.32617 0.32793 8.99824 0 8.59375 0C8.18926 0 7.86133 0.32793 7.86133 0.732422V3.51562H7.1289C6.72441 3.51562 6.39648 3.84355 6.39648 4.24805V5.71289C6.39648 6.9084 6.97246 7.97178 7.86133 8.64058V11.3529C5.93174 14.2964 4.57934 17.5332 3.84126 20.9776L3.48305 22.6493C3.40649 23.0066 3.60507 23.3658 3.94853 23.4909C6.69741 24.4923 9.57451 25 12.5 25C15.4255 25 18.3026 24.4923 21.0515 23.4909C21.3949 23.3658 21.5935 23.0067 21.5169 22.6493ZM15.918 4.98047H17.1387V5.71289C17.1387 6.92446 16.153 7.91016 14.9414 7.91016H13.2324V7.66602C13.2324 6.1852 14.4372 4.98047 15.918 4.98047ZM7.86133 4.98047H9.08203C10.5628 4.98047 11.7676 6.1852 11.7676 7.66602V7.91016H10.0586C8.84702 7.91016 7.86133 6.92446 7.86133 5.71289V4.98047ZM10.0586 9.375H14.9414C15.1922 9.375 15.4371 9.34956 15.6738 9.30132V10.8398H9.32617V9.30132C9.56289 9.34956 9.80781 9.375 10.0586 9.375ZM12.5 23.5352C9.95849 23.5352 7.45561 23.128 5.05073 22.3244L5.27353 21.2846C5.96118 18.0757 7.21054 15.0566 8.98901 12.3047L16.0109 12.3047C17.7894 15.0566 19.0388 18.0757 19.7264 21.2845L19.9492 22.3244C17.5444 23.128 15.0415 23.5352 12.5 23.5352Z" fill="black"/>
</g>
<path d="M41.52 6.704H42.88L44.384 10.656L45.904 6.704H47.264L45.296 11.648L47.248 16.336L51.088 6.64H52.656L47.904 18H46.656L44.4 12.64L42.128 18H40.88L36.144 6.64H37.696L41.552 16.336L43.488 11.648L41.52 6.704ZM59.9274 18.08C59.1274 18.08 58.3967 17.92 57.7354 17.6C57.0847 17.2693 56.5247 16.8373 56.0554 16.304C55.586 15.76 55.2234 15.1413 54.9674 14.448C54.7114 13.7547 54.5834 13.0453 54.5834 12.32C54.5834 11.5627 54.7167 10.8373 54.9834 10.144C55.2607 9.45067 55.6394 8.83733 56.1194 8.304C56.5994 7.77067 57.1647 7.34933 57.8154 7.04C58.4767 6.72 59.1914 6.56 59.9594 6.56C60.7594 6.56 61.4847 6.73067 62.1354 7.072C62.786 7.40267 63.346 7.84 63.8154 8.384C64.2847 8.928 64.6474 9.54667 64.9034 10.24C65.1594 10.9227 65.2874 11.6213 65.2874 12.336C65.2874 13.0933 65.1487 13.8187 64.8714 14.512C64.6047 15.2053 64.2314 15.8187 63.7514 16.352C63.282 16.8747 62.7167 17.296 62.0554 17.616C61.4047 17.9253 60.6954 18.08 59.9274 18.08ZM56.0394 12.32C56.0394 12.896 56.13 13.456 56.3114 14C56.5034 14.5333 56.77 15.008 57.1114 15.424C57.4527 15.84 57.8634 16.1707 58.3434 16.416C58.8234 16.6613 59.3567 16.784 59.9434 16.784C60.5514 16.784 61.0954 16.656 61.5754 16.4C62.0554 16.1333 62.4607 15.792 62.7914 15.376C63.1327 14.9493 63.3887 14.4693 63.5594 13.936C63.7407 13.4027 63.8314 12.864 63.8314 12.32C63.8314 11.744 63.7354 11.1893 63.5434 10.656C63.362 10.112 63.0954 9.63733 62.7434 9.232C62.402 8.816 61.9914 8.48533 61.5114 8.24C61.042 7.99467 60.5194 7.872 59.9434 7.872C59.3354 7.872 58.7914 8 58.3114 8.256C57.8314 8.512 57.4207 8.848 57.0794 9.264C56.7487 9.68 56.4927 10.1547 56.3114 10.688C56.13 11.2213 56.0394 11.7653 56.0394 12.32ZM78.7121 18V9.216L74.9361 15.952H74.1201L70.3281 9.216V18H68.8881V6.64H70.4081L74.5201 14.016L78.6481 6.64H80.1521V18H78.7121ZM87.9285 6.64H89.1445L93.7845 18H92.2485L90.9045 14.672H86.1365L84.8085 18H83.2725L87.9285 6.64ZM90.5845 13.552L88.5365 8.304L86.4245 13.552H90.5845ZM96.0526 16.88L103.381 7.92H96.1966V6.64H105.061V7.76L97.8606 16.72H105.061V18H96.0526V16.88ZM108.594 18V6.64H110.034V18H108.594ZM115.791 9.328V18H114.351V6.64H115.471L122.511 15.488V6.656H123.951V18H122.735L115.791 9.328ZM136.279 16.464C135.276 17.5413 134.124 18.08 132.823 18.08C132.066 18.08 131.362 17.9147 130.711 17.584C130.071 17.2533 129.516 16.8213 129.047 16.288C128.578 15.744 128.204 15.1253 127.927 14.432C127.66 13.7387 127.527 13.024 127.527 12.288C127.527 11.52 127.66 10.7947 127.927 10.112C128.194 9.41867 128.562 8.81067 129.031 8.288C129.5 7.75467 130.06 7.33333 130.711 7.024C131.362 6.71467 132.066 6.56 132.823 6.56C133.922 6.56 134.823 6.78933 135.527 7.248C136.242 7.70667 136.786 8.304 137.159 9.04L136.055 9.808C135.714 9.14667 135.26 8.656 134.695 8.336C134.13 8.016 133.495 7.856 132.791 7.856C132.215 7.856 131.692 7.984 131.223 8.24C130.754 8.48533 130.354 8.816 130.023 9.232C129.692 9.63733 129.436 10.112 129.255 10.656C129.074 11.1893 128.983 11.744 128.983 12.32C128.983 12.928 129.084 13.504 129.287 14.048C129.49 14.5813 129.767 15.056 130.119 15.472C130.471 15.8773 130.887 16.1973 131.367 16.432C131.847 16.6667 132.37 16.784 132.935 16.784C134.172 16.784 135.287 16.1867 136.279 14.992V13.424H133.831V12.336H137.495V18H136.279V16.464Z" fill="black"/>
<defs>
<clipPath id="clip0_58247_592">
<rect width="25" height="25" fill="white"/>
</clipPath>
</defs>
</svg>
